<?xml version="1.0" standalone="no"?>
<!DOCTYPE svg PUBLIC "-//W3C//DTD SVG 20010904//EN"
 "http://www.w3.org/TR/2001/REC-SVG-20010904/DTD/svg10.dtd">
<svg version="1.0" xmlns="http://www.w3.org/2000/svg"
 width="1024.000000pt" height="1024.000000pt" viewBox="0 0 1024.000000 1024.000000"
 preserveAspectRatio="xMidYMid meet">

<g transform="translate(0.000000,1024.000000) scale(0.100000,-0.100000)"
fill="#000000" stroke="none">
<path d="M4810 8710 c-25 -4 -72 -11 -105 -14 -131 -15 -184 -26 -355 -73
-468 -130 -895 -387 -1194 -718 -244 -271 -456 -638 -545 -947 -34 -118 -64
-255 -82 -380 l-13 -87 -29 52 c-50 86 -179 205 -277 255 -230 115 -443 172
-468 125 -10 -18 -3 -24 86 -63 280 -125 402 -190 465 -250 71 -66 110 -130
131 -216 17 -68 32 -254 20 -254 -4 0 -43 13 -88 29 -45 17 -92 32 -106 35
-24 5 -27 12 -39 80 -17 103 -45 140 -152 193 -46 23 -111 53 -144 67 -33 13
-114 47 -180 76 -164 71 -181 76 -200 60 -22 -18 -18 -56 8 -75 12 -8 58 -29
102 -46 44 -17 141 -59 215 -94 74 -34 147 -67 162 -73 28 -11 65 -58 55 -68
-3 -3 -21 -1 -40 5 -63 21 -122 -20 -171 -116 -9 -18 -23 -33 -31 -33 -26 0
-24 -17 10 -98 52 -124 63 -143 118 -199 42 -44 48 -53 33 -59 -32 -12 -111 3
-201 38 -49 20 -142 57 -207 82 -64 25 -119 46 -122 46 -3 0 -6 -11 -6 -25 0
-36 52 -89 112 -115 29 -12 102 -45 161 -72 185 -86 257 -95 385 -52 l77 26
75 -36 c41 -19 121 -52 177 -72 l102 -37 12 -51 c23 -99 121 -363 180 -482
140 -288 390 -600 659 -825 167 -139 248 -192 485 -315 307 -159 567 -231 971
-270 157 -15 201 -16 356 -5 97 7 187 14 200 16 13 2 58 9 101 15 326 48 706
199 1012 403 306 203 629 545 800 847 85 149 187 406 220 555 21 92 26 101 63
110 63 15 250 90 279 113 35 26 34 26 138 -3 40 -11 86 -16 137 -13 71 3 85 8
193 63 142 73 185 106 167 127 -18 23 -90 7 -234 -50 -74 -30 -178 -52 -178
-37 0 4 22 27 49 51 28 25 68 72 90 106 38 56 41 65 41 132 0 122 -54 199
-163 235 -27 9 -46 10 -67 2 -62 -21 -23 22 74 83 65 42 210 116 329 170 42
19 78 41 78 48 4 39 -10 58 -43 58 -22 0 -418 -192 -473 -230 -50 -35 -101
-109 -111 -164 -9 -51 -39 -81 -90 -90 -21 -4 -62 -21 -90 -37 -77 -43 -78
-43 -70 56 21 256 118 405 336 513 58 29 161 76 230 105 104 45 124 57 122 73
-6 29 -22 35 -79 29 -74 -7 -178 -47 -327 -124 -105 -54 -143 -79 -198 -134
-37 -37 -84 -91 -103 -120 -19 -28 -35 -50 -35 -47 0 3 -11 68 -25 145 -85
496 -328 952 -709 1330 -388 386 -939 641 -1531 709 -119 14 -462 17 -535 6z
m-801 -389 c-36 -65 -240 -245 -345 -306 -40 -23 -111 -79 -169 -136 -55 -53
-115 -104 -132 -113 -46 -23 -44 -33 22 -82 22 -16 123 -97 225 -179 102 -83
202 -163 222 -179 39 -29 56 -62 40 -78 -6 -6 -29 5 -65 29 -192 132 -375 272
-462 354 l-51 48 -24 -47 c-13 -26 -40 -72 -60 -102 -20 -30 -49 -77 -65 -105
-65 -115 -172 -274 -226 -337 -31 -37 -59 -72 -61 -78 -2 -6 -16 -13 -31 -14
-15 -2 -34 -12 -43 -22 -13 -18 -14 -17 -8 11 20 95 50 189 80 253 39 80 147
268 197 341 54 79 177 220 197 226 11 4 45 37 75 75 100 125 251 245 452 359
73 42 236 120 251 121 2 0 -7 -18 -19 -39z m1001 -368 l0 -108 -146 3 c-152 3
-174 -2 -174 -39 0 -40 36 -49 187 -49 92 0 143 -4 143 -10 0 -6 16 -10 35 -8
19 1 35 6 35 10 0 4 65 8 144 8 80 0 156 4 169 9 29 11 42 41 32 73 -7 21 -10
21 -171 15 l-164 -7 0 106 0 105 337 -6 c186 -3 349 -8 363 -12 60 -14 156
-70 206 -119 72 -72 111 -157 125 -265 10 -86 9 -1032 -1 -1042 -3 -3 -77 30
-164 74 -88 43 -169 79 -180 79 -36 -1 -196 -238 -233 -345 -19 -58 -11 -69
65 -84 31 -6 72 -20 89 -31 18 -11 121 -59 229 -106 124 -55 198 -93 202 -105
8 -20 0 -365 -9 -373 -3 -3 -40 13 -82 35 -65 34 -77 44 -77 66 0 21 -2 23
-15 13 -19 -15 -47 -8 -139 34 -120 57 -230 105 -253 111 -41 11 -62 -5 -116
-88 -29 -45 -70 -104 -90 -130 -51 -66 -47 -127 12 -186 23 -23 176 -104 271
-144 86 -35 102 -48 89 -68 -13 -21 -11 -39 6 -39 8 0 15 -3 14 -7 -3 -20 15
-52 34 -61 146 -71 180 -74 184 -16 l2 29 -7 -29 -7 -28 -27 26 c-29 26 -38
65 -15 67 34 3 61 -6 138 -44 l84 -42 2 -385 c3 -423 0 -448 -61 -553 -35 -59
-143 -160 -206 -192 -99 -50 -141 -55 -467 -55 l-303 0 0 78 c0 86 3 92 43
110 34 15 66 81 67 138 0 50 -32 101 -77 123 -30 15 -33 20 -33 62 0 52 -16
72 -52 67 -23 -3 -23 -3 -30 -218 -3 -118 -4 -248 -1 -287 l6 -73 -297 0
c-337 0 -395 8 -493 66 -69 42 -155 123 -188 179 -13 23 -34 70 -46 105 -23
63 -24 77 -27 458 l-3 392 23 0 c13 0 43 10 68 21 42 20 81 32 140 45 13 3 28
10 32 17 4 6 10 8 14 5 3 -4 12 -1 20 7 7 7 46 26 86 41 40 15 137 56 215 90
78 34 144 60 147 56 3 -3 6 0 6 6 0 6 7 9 15 6 11 -4 13 -2 10 9 -4 10 3 17
22 22 15 5 33 7 39 6 13 -2 24 30 24 71 0 38 -33 121 -84 214 -63 115 -74 124
-141 124 -45 0 -71 -8 -135 -40 -102 -51 -320 -141 -320 -132 0 4 -4 2 -8 -4
-8 -13 -146 -84 -162 -84 -7 0 -10 63 -8 190 l3 191 125 50 c69 27 192 84 274
125 81 40 158 74 171 74 33 0 55 10 55 25 0 13 -126 256 -181 348 -33 56 -35
58 -68 52 -18 -4 -108 -45 -198 -92 l-165 -85 -26 24 c-15 14 -35 28 -44 31
-14 5 -18 18 -18 62 0 54 1 55 38 72 59 28 59 102 0 119 -25 7 -33 15 -32 32
0 12 1 60 2 107 2 83 3 85 32 100 l30 16 0 252 c0 138 5 272 11 296 24 105
109 227 193 276 97 57 110 59 421 65 160 3 318 7 353 8 l62 2 0 -107z m1490
-73 c25 -25 25 -31 -1 -64 -24 -30 -36 -32 -61 -9 -22 20 -23 51 -1 75 21 23
38 23 63 -2z m-2794 -135 c18 -28 11 -60 -16 -75 -54 -29 -87 58 -36 92 20 14
35 8 52 -17z m3157 -7 c-13 -51 -362 -350 -543 -466 -60 -38 -65 -40 -68 -21
-6 34 22 63 180 185 84 65 182 143 218 174 62 54 197 150 211 150 4 0 5 -10 2
-22z m-143 -428 c0 -11 9 -44 20 -74 26 -69 73 -111 150 -133 33 -10 60 -21
60 -24 0 -4 -33 -19 -74 -34 -41 -15 -83 -37 -94 -49 -27 -30 -62 -119 -62
-156 0 -20 -4 -30 -12 -28 -12 4 -16 15 -39 102 -18 71 -48 101 -127 126 -37
12 -74 24 -82 27 -8 3 19 16 61 29 100 31 121 52 155 157 26 79 44 103 44 57z
m-3310 -2 c5 -13 16 -49 25 -82 19 -68 40 -90 115 -120 29 -12 55 -26 57 -31
1 -6 -31 -23 -73 -38 -83 -32 -75 -21 -140 -172 l-17 -40 -12 66 c-18 106 -40
129 -149 159 -33 9 -61 21 -63 27 -2 5 30 19 71 31 96 28 128 62 146 156 13
69 24 81 40 44z m258 -308 c135 -34 182 -60 182 -101 0 -5 -8 -9 -17 -9 -24 1
-283 129 -262 129 9 1 53 -8 97 -19z m2821 -20 c-40 -21 -166 -70 -180 -70
-14 0 -11 38 3 46 19 12 150 42 183 43 l30 0 -36 -19z m-3500 -316 c28 -36 26
-55 -8 -88 -31 -30 -38 -29 -78 7 -28 25 -29 41 -2 78 26 37 61 38 88 3z
m4230 -10 c17 -14 31 -32 31 -39 0 -13 -55 -65 -69 -65 -14 0 -61 49 -61 63 0
20 39 67 55 67 7 0 27 -12 44 -26z m-3491 -1 c45 -3 82 -9 82 -13 0 -3 -19
-15 -42 -26 -40 -18 -62 -19 -343 -14 l-300 5 -3 28 -3 27 263 0 c145 0 300
-3 346 -7z m645 -38 c10 -24 39 -75 63 -112 24 -38 44 -72 44 -78 0 -5 -26
-18 -58 -29 -31 -10 -163 -65 -292 -121 -129 -56 -302 -131 -385 -165 -476
-200 -461 -192 -494 -246 -14 -24 -30 -41 -36 -39 -5 2 -48 16 -95 30 -122 38
-160 56 -160 74 0 24 112 163 156 193 22 15 153 72 292 128 139 55 308 126
375 156 67 31 163 73 212 94 50 21 149 66 220 99 72 34 132 61 135 61 3 0 13
-20 23 -45z m1772 -122 c205 -95 316 -143 577 -249 272 -110 322 -144 380
-258 36 -72 38 -69 -92 -116 l-89 -32 -32 36 c-38 43 -90 75 -179 110 -91 34
-407 166 -515 214 -236 105 -374 165 -420 184 -95 38 -115 48 -115 57 0 4 30
56 66 114 l66 106 96 -46 c53 -25 169 -79 257 -120z m837 162 c3 -3 3 -17 0
-32 l-5 -26 -288 6 c-274 5 -329 11 -329 37 0 5 19 11 43 13 67 6 573 8 579 2z
m-4208 -466 c65 -21 134 -41 152 -45 19 -3 34 -10 34 -15 0 -4 -18 -29 -40
-54 -22 -26 -47 -60 -55 -76 l-16 -29 -32 17 c-18 9 -77 33 -132 54 l-100 37
-2 91 -2 91 37 -16 c20 -9 90 -33 156 -55z m4772 -13 c0 -46 -4 -87 -7 -91 -8
-7 -88 -38 -184 -71 -38 -13 -76 -31 -84 -39 -13 -13 -19 -8 -46 43 -17 31
-39 69 -48 84 l-18 26 53 16 c29 8 114 38 188 65 74 27 138 50 141 50 4 1 6
-37 5 -83z m-5483 42 c12 -6 38 -24 57 -39 19 -16 91 -53 160 -82 69 -30 152
-67 185 -82 229 -103 603 -241 769 -284 87 -23 100 -35 115 -102 13 -59 -1
-111 -37 -140 -24 -19 -35 -20 -96 -15 -38 4 -99 17 -135 30 -231 84 -311 114
-526 199 -132 52 -265 102 -295 112 -87 28 -182 80 -222 122 -88 91 -104 219
-34 275 25 21 31 21 59 6z m6057 -18 c28 -28 40 -63 40 -114 0 -34 -8 -54 -40
-98 -51 -71 -114 -112 -275 -177 -555 -224 -744 -297 -816 -316 -70 -19 -162
-19 -199 0 -31 16 -70 72 -70 101 1 31 37 102 58 113 11 6 95 33 187 61 157
47 429 152 610 235 44 20 129 57 189 81 60 25 148 65 195 89 47 25 89 45 94
45 4 0 16 -9 27 -20z m-3500 -325 c0 -21 44 -108 81 -158 16 -22 29 -44 29
-49 0 -11 -140 -77 -314 -147 -113 -46 -286 -122 -691 -303 -218 -98 -230
-102 -340 -102 -84 -1 -110 3 -160 23 -129 53 -217 134 -265 245 -18 43 -18
47 -4 42 10 -4 58 -18 108 -32 50 -14 103 -33 118 -42 24 -14 30 -14 66 0 24
9 58 13 93 10 67 -5 123 13 314 101 164 75 253 115 505 228 102 45 244 108
315 140 72 33 133 59 138 59 4 0 7 -7 7 -15z m1020 -39 c41 -18 212 -95 380
-171 168 -76 361 -162 430 -192 69 -29 156 -68 193 -85 58 -25 76 -29 115 -24
64 9 60 9 124 -4 62 -12 118 0 232 49 27 12 50 20 53 18 2 -2 -13 -36 -32 -75
-46 -91 -139 -180 -222 -213 -45 -18 -79 -23 -153 -23 -93 -1 -97 0 -230 55
-157 66 -237 100 -375 162 -276 123 -374 165 -420 181 -27 9 -111 47 -187 84
l-136 67 15 30 c9 17 30 48 48 70 18 22 40 55 51 73 10 17 23 32 29 32 5 0 44
-15 85 -34z m1080 4 c0 -5 -2 -10 -4 -10 -3 0 -8 5 -11 10 -3 6 -1 10 4 10 6
0 11 -4 11 -10z m33 -7 c3 -5 -1 -14 -9 -21 -12 -11 -14 -9 -14 8 0 20 14 27
23 13z m-3214 -963 c16 -56 48 -88 106 -108 65 -23 64 -42 -3 -62 -62 -17 -76
-33 -99 -110 -23 -75 -28 -79 -42 -24 -13 53 -38 105 -55 116 -6 4 -35 15 -63
23 -29 9 -53 20 -53 25 0 5 27 19 59 31 69 24 81 36 107 101 10 27 22 48 25
48 3 0 11 -18 18 -40z m3180 -117 l34 -31 -34 -15 c-39 -17 -84 -62 -94 -94
-9 -31 -25 -29 -25 3 0 18 -12 38 -37 60 -20 19 -41 34 -45 34 -24 0 -1 39 49
84 l56 52 31 -31 c17 -17 46 -45 65 -62z"/>
<path d="M4253 5223 c9 -2 23 -2 30 0 6 3 -1 5 -18 5 -16 0 -22 -2 -12 -5z"/>
<path d="M4200 5210 c0 -5 9 -10 21 -10 11 0 17 5 14 10 -3 6 -13 10 -21 10
-8 0 -14 -4 -14 -10z"/>
<path d="M5722 4925 c-19 -22 -5 -85 19 -85 12 0 19 -7 19 -20 0 -11 -4 -20
-9 -20 -5 0 -9 -18 -9 -40 0 -22 3 -40 9 -40 5 0 9 -15 9 -34 0 -45 20 -60 72
-53 71 10 74 20 52 195 l-7 52 -38 0 c-32 0 -39 3 -39 20 0 13 -7 20 -20 20
-11 0 -20 5 -20 10 0 15 -23 11 -38 -5z"/>
<path d="M5697 4820 c3 -11 9 -20 15 -20 5 0 4 9 -2 20 -6 11 -12 20 -14 20
-2 0 -2 -9 1 -20z"/>
<path d="M5603 4723 c-23 -4 -34 -43 -13 -43 6 0 10 -7 10 -15 0 -11 11 -15
36 -15 35 0 35 1 32 38 -3 39 -15 45 -65 35z"/>
<path d="M4089 3360 c-94 -17 -189 -83 -229 -161 -25 -48 -43 -153 -35 -202
36 -209 246 -338 444 -272 38 13 150 86 162 106 2 3 -22 27 -54 53 l-58 47
-30 -25 c-32 -27 -86 -46 -132 -46 -104 0 -194 120 -166 222 39 147 192 183
303 72 l28 -29 17 25 c9 14 31 41 49 61 l32 37 -37 32 c-76 67 -191 99 -294
80z"/>
<path d="M4743 3360 c-103 -22 -191 -83 -241 -169 -25 -42 -27 -55 -27 -151 0
-121 13 -157 87 -229 80 -79 183 -114 295 -101 216 26 354 271 259 464 -16 32
-47 77 -68 98 -73 73 -201 110 -305 88z m145 -156 c61 -30 90 -73 99 -142 7
-66 -10 -113 -57 -156 -87 -79 -210 -64 -280 34 -67 94 -11 240 107 277 56 17
74 16 131 -13z"/>
<path d="M6719 3357 c-100 -29 -189 -104 -232 -197 -32 -68 -28 -171 7 -244
77 -157 251 -241 401 -195 36 11 80 35 110 60 49 40 68 69 46 69 -7 0 -32 19
-57 42 l-45 41 -27 -25 c-39 -36 -65 -48 -109 -48 -90 0 -180 82 -190 173 -11
91 80 187 176 187 46 0 133 -39 151 -67 7 -12 13 -14 16 -6 11 25 65 93 74 93
22 0 8 36 -23 57 -90 61 -209 85 -298 60z"/>
<path d="M7086 3330 c-3 -19 -6 -52 -6 -72 l0 -38 100 0 100 0 0 -217 c0 -120
3 -234 6 -253 l6 -35 74 0 74 0 0 253 0 252 84 0 83 0 7 53 c3 28 6 60 6 69 0
16 -22 18 -264 20 l-264 3 -6 -35z"/>
<path d="M2030 3039 l0 -321 183 4 182 3 65 36 c116 64 177 172 168 298 -6 86
-35 149 -95 209 -79 78 -128 92 -333 92 l-170 0 0 -321z m330 166 c37 -19 77
-65 95 -109 20 -48 13 -106 -20 -157 -33 -52 -77 -69 -174 -69 l-81 0 0 173
c0 96 3 177 7 180 10 10 145 -4 173 -18z"/>
<path d="M2710 3221 c0 -75 3 -220 7 -323 l6 -187 239 2 238 2 0 73 0 72 -97
2 c-54 2 -129 3 -167 3 l-68 0 -2 53 -1 52 150 0 150 0 1 65 1 65 -148 0 -149
0 0 58 0 57 160 -3 160 -3 0 75 0 75 -240 -1 -240 -1 0 -136z"/>
<path d="M3390 3333 c-79 -42 -113 -89 -118 -166 -3 -53 0 -67 20 -97 29 -43
82 -74 173 -101 129 -38 155 -49 155 -69 0 -25 -47 -60 -81 -60 -37 0 -128 34
-173 65 -20 13 -36 20 -36 14 0 -5 -20 -29 -44 -54 -52 -51 -52 -51 54 -108
137 -75 310 -70 382 10 26 28 58 104 58 138 0 48 -33 108 -76 137 -21 15 -83
41 -136 58 -54 17 -108 40 -120 51 l-23 19 33 30 c49 45 116 37 188 -23 l31
-26 41 64 41 64 -29 21 c-63 45 -112 60 -201 60 -75 0 -94 -4 -139 -27z"/>
<path d="M5228 3258 c-1 -57 -1 -203 0 -325 l4 -222 71 1 72 1 5 191 5 191
130 -164 c183 -232 169 -219 238 -213 l57 4 0 316 0 317 -75 0 -75 0 0 -187
c0 -104 -3 -188 -7 -188 -5 1 -30 34 -58 75 -27 41 -90 126 -140 189 l-90 115
-67 1 -66 0 -4 -102z"/>
<path d="M5933 3208 c4 -83 7 -226 7 -318 l0 -168 233 -4 c127 -3 233 -4 233
-4 1 1 4 34 6 73 l4 73 -166 2 -165 3 -3 47 c-4 59 0 60 161 56 l117 -3 0 68
0 67 -135 0 -135 0 0 61 0 60 45 -7 c25 -3 97 -3 160 1 l115 7 0 69 0 69 -242
0 -241 0 6 -152z"/>
<path d="M7810 3323 c-13 -40 -110 -281 -140 -348 -27 -61 -87 -207 -95 -233
-7 -23 -6 -23 76 -20 l82 3 20 58 19 57 119 0 c65 0 122 1 126 3 4 1 23 -27
41 -63 l34 -65 81 4 c45 1 84 5 86 7 2 2 -31 79 -74 172 -44 92 -105 232 -136
312 l-57 145 -85 3 -85 3 -12 -38z m137 -261 c18 -53 33 -98 33 -99 0 -2 -34
-3 -75 -3 -53 0 -75 4 -75 13 0 6 16 48 35 92 19 44 35 86 35 94 0 28 14 -1
47 -97z"/>
<path d="M4062 2358 c-28 -51 -58 -106 -67 -122 l-16 -29 -72 117 -71 116 -68
0 c-37 0 -68 -3 -68 -8 0 -13 40 -84 124 -217 l81 -130 5 -110 5 -110 60 0 60
0 6 111 c7 109 7 111 50 177 62 94 159 262 159 276 0 7 -21 11 -54 11 -30 0
-61 3 -69 6 -11 4 -29 -20 -65 -88z"/>
<path d="M4528 2443 c-37 -3 -48 -8 -48 -21 0 -9 21 -66 46 -127 25 -60 57
-139 70 -175 14 -36 45 -108 71 -161 l45 -97 67 5 c81 6 84 10 135 146 21 56
64 171 97 254 32 84 59 157 59 163 0 6 -30 10 -74 10 l-74 0 -35 -92 c-20 -51
-49 -131 -65 -178 -17 -47 -34 -96 -39 -109 -8 -20 -19 4 -77 160 -37 101 -72
194 -77 207 -6 15 -16 21 -31 20 -13 -1 -44 -3 -70 -5z"/>
<path d="M5133 2375 c4 -43 7 -174 7 -292 l0 -214 68 3 67 3 0 282 0 283 -57
0 c-31 0 -64 3 -74 7 -16 6 -17 0 -11 -72z"/>
<path d="M6127 2443 l-179 -3 7 -283 c4 -155 8 -283 9 -284 1 -1 96 -3 211 -4
l210 -1 0 63 0 64 -147 3 -148 3 0 44 0 45 120 0 120 0 0 60 0 60 -120 0 -120
0 0 50 0 50 118 1 c64 1 129 0 145 -1 24 -1 27 2 27 32 0 18 3 50 6 71 l7 37
-44 -2 c-24 -1 -124 -4 -222 -5z"/>
<path d="M5323 2418 c3 -13 42 -111 87 -218 45 -107 93 -225 107 -262 l25 -68
73 0 72 0 73 193 c40 105 88 228 107 272 18 44 33 85 33 92 0 9 -20 13 -69 13
l-69 0 -40 -92 c-22 -51 -55 -137 -73 -190 -19 -54 -36 -94 -40 -90 -3 4 -13
35 -22 68 -9 34 -40 116 -68 183 l-52 121 -75 0 c-72 0 -74 -1 -69 -22z"/>
<path d="M2775 2251 c-36 -5 -40 -9 -43 -37 -3 -31 -2 -32 45 -38 62 -7 570
-7 646 0 44 5 60 11 69 27 9 17 7 24 -12 39 -21 17 -47 18 -344 17 -176 -1
-339 -5 -361 -8z"/>
<path d="M6643 2250 c-22 -9 -29 -33 -18 -62 4 -11 67 -13 333 -10 384 3 392
4 392 37 0 14 -8 29 -19 35 -25 13 -656 13 -688 0z"/>
</g>
</svg>
